METRIC,LZ
M48
T1F00S00C0.500
T2F00S00C0.600
T3F00S00C0.700
T4F00S00C0.850
T5F00S00C0.950
T6F00S00C1.000
T7F00S00C1.300
T8F00S00C1.500
T9F00S00C3.000
T10F00S00C3.500
%
T01
X0127375Y00262
X013065Y00313
X0131825Y00333
X013325Y0035
X013515Y00323
X01386Y0029925
X0137925Y0037325
X0132125Y00408
X0133404Y00424
X0134125Y00444
X0130482Y0046175
X01304Y004745
X0130025Y0048825
X0131775Y0049125
X01343Y005365
X0140375Y00521
X0140325Y0046675
X013915Y0046125
X0138375Y004795
T02
X02075Y0005
Y00125
X0205Y0014975
X02075Y00175
X021Y0015
X02125Y0012525
X0215Y0015
X0215025Y002
X021855Y00209
X0221825Y002225
X022Y0025025
X0225Y0025
X0227475Y00225
X022665Y00183
X0225525Y00133
X02221Y0013825
X02205Y000835
X02181Y001055
X0219575Y00025
X0215Y0002525
X0229237Y0009662
X0232125Y00136
X02146Y002525
X02104Y002515
X02025Y0017525
X0202475Y00125
X0194975
X0195Y0017225
X0193725Y0022875
X0191275Y0022025
X018905Y00219
X019Y00275
X01931Y00268
X0195Y0027475
Y0007475
X0199175Y00068
X01992Y0003375
X0190125Y00017
X01885Y00025
Y000745
X0186Y0004975
X01835Y00025
X0181Y000495
X018345Y00075
X0181Y0010025
X01835Y0012475
X0186Y0009975
X0188475Y00125
X017845
X01785Y0007475
X01735Y000745
X0175Y0005
X017495Y001
X0165Y001
X016595Y0015
X01699Y0015
X016835Y00175
X0167375Y002145
X0167775Y0028025
X017275Y00292
X0175575
X017605Y0022
X01779Y0019575
X018345Y0018925
X01785Y0002425
X0168475Y00025
X016345Y00015
X015845
X01545Y00015
X015645Y00062
X0158175Y000635
X0161Y0007525
X0155025Y00087
X01519Y0014925
X015025Y001365
X014865Y002175
X0146Y0022475
Y002745
X0151925Y00275
X0152Y002245
X015645Y0024725
X015725Y0027475
X01641Y0022675
X016095Y00151
X016115Y00297
X01576Y0029375
X015715Y00336
X0159475Y003315
X01572Y0038725
X0161225Y003955
X016335Y0038
X016345Y00414
X01635Y004525
Y004955
X016135Y004835
X0158475Y00495
X01609Y0052175
X01592Y0058825
X01548Y0058875
X01536Y0057525
X0155225Y0055625
X015025Y00557
X014845Y0055
X0146Y0057475
X0145975Y00525
X014845Y005
X0145975Y00475
X014845Y0045
X0146Y0042475
X0148425Y004
X0146Y00375
X01485Y003495
X0146Y003245
X0152Y0037475
X0151925Y00425
X0152025Y00475
X0151975Y00525
X0158475Y0043
X016425Y00588
X017Y0058675
X0175Y005865
X0174975Y00556
X0179Y0055525
X018Y00587
X0185Y0058675
X0188937Y0058388
X01878Y0051525
X01863Y0051375
X018366Y005141
X0181075Y0051425
X01775Y00523
X01729Y0051075
X0166Y0052175
X01725Y0042525
X0175Y004
X01775Y00375
X0175Y0035
X0180025Y0035
X01784Y003175
X01836Y0031075
X01868Y003115
X0186575Y0033675
X01891Y0034375
X018905Y00294
X019435Y00325
X0199975Y0035
X020245Y00375
X02Y0040025
X02Y0045
X02025Y004255
X0202525Y00475
X0198975Y0055075
X0199187Y0058388
X0195Y005205
X0192275Y0051025
X01909Y005165
X0192325Y00486
X01933Y0042325
X018905Y00395
X018485Y004
X0183375Y00423
X018625Y004355
X01809Y00445
X018Y004
X018255Y00375
X0172025
X01719Y0032925
X01836Y0048125
X02Y003
X02025Y0032475
X0205Y0040025
X02075Y0042475
X021Y0040025
X02125Y0042475
X02125Y0047475
X021Y0045025
X0205025Y0045
X02075Y0047525
X0205825Y00555
X020916Y0057182
X021255Y00553
X0221525Y0053975
X022145Y00521
X02262Y00508
X0230075Y005
X02253Y0046525
X02242Y0041975
X02219Y00339
X02175Y0032525
X0215Y0035
Y0045025
X02175Y0047475
X02224Y0058275
X0225Y0029975
X023Y003
T03
X0131149Y0013525
X0135149Y0013825
Y002045
X0139674Y0022525
X010395Y0020925
X010135Y00204
X00984Y002005
X00985Y0015975
X0096325Y00159
X009455Y00139
X009395Y0018225
X00924Y0019675
X009035Y00171
X00919Y0011125
Y0006275
X009435Y00087
X0098125Y00118
X01023Y001585
X0102475Y0024975
X00975
X0092525
X0089725Y0026
X00907Y00276
X0094975Y00275
X0100025
X0082325Y0028875
X00771Y0028475
X00766Y00271
X0075125Y00268
X0074875Y0023275
X006955Y0024
X0069025Y002545
X00657Y002265
X0066425Y00212
X00674Y0017925
X0066775Y0015025
X006836Y0015115
X0068075Y00136
X00691Y001135
X006795Y00101
X0067025Y00081
X0063625Y00112
X0060775Y0011075
X005875Y001345
X006165Y0014925
X00702Y0014775
X00709Y0012225
X007825Y0012425
X0077325Y001355
X00794Y001135
X0080525Y001005
X00829Y0011625
X008485Y00171
X0082275Y00197
X008245Y00232
X007695Y001805
X0070675Y00197
X007502Y000878
X00739Y00074
X0076425Y00072
X0060325Y0005175
X00534Y000515
X00478
X0048375Y001335
X00474Y00178
X00501Y002075
X0050825Y00233
X0052375Y00231
X0059Y0024425
X0058275Y002715
X0056625Y00279
X0060525Y002775
X0042475Y0026225
X0037175Y00234
X0037425Y002
X004095Y0019
X00441Y0019125
X0043275Y00128
X0043325Y000945
X0045075Y0009825
X00387Y0008475
X0038575Y00123
X003855Y00162
X00307Y001605
X00291Y001895
X002535Y00185
X00207Y001615
X002115Y00123
X00259Y001055
X00289Y000865
X00313Y0011925
X00335Y0004775
X002425Y0004575
X0023525Y0007725
X00121Y0007025
X001365Y00046
X0008125Y00069
X000995Y00096
X000755Y00125
X001Y0015025
X000995Y00199
X00075Y0017475
X0007675Y00225
X0009025Y0025875
X00134Y002485
X0016325Y00242
X0016Y002805
X0021075Y00278
X0025325Y00291
X002685Y0028225
X0027Y0026075
X002825Y002725
X00335Y0023425
X0012775Y00125
X000635Y00288
X00025Y002725
X00023Y002245
X0005Y0019925
X000275Y00174
X000515Y0015
X00051Y001
X00027Y0012375
X00024Y0032275
Y003755
X0005025Y0045
X00026Y004745
X000515Y005
X0015025
X0015425Y00548
X001145Y0055
X0024074Y0057276
X002405Y005265
X0024175Y0048
X00239Y0046125
X003085Y004625
X0032307Y0046807
X003355Y0044
X0039425Y0044275
X00399Y0048
X0037425Y0049875
X003695Y0051325
X003735Y00527
X00293Y005505
X00282Y0038575
X00288Y0036925
X00287Y0034025
X0031225Y00339
X003745Y0038075
X0041Y0039175
X004465Y004415
X0044425Y0047825
X00452Y005815
X00172Y0044425
X0016225Y00417
X00201Y003675
X0018025Y003045
X0013925Y0033375
X001055Y0033325
X0007725Y00336
X000735Y00389
X00116Y0029625
X0048375Y00335
X0050775Y0033275
X0052025Y0032375
X0053925Y00331
X0056425Y00331
X006055
X00643Y0033125
X0063325Y00372
X0069225
X006895Y00343
X007035Y003415
X0070275Y00326
X007685Y00369
X007995
X008265Y00374
X00806Y0031425
X0079425Y0030275
X0078175Y0029475
X00747Y0042275
X0073425Y0044075
X007085Y0044675
X0069175Y0045375
X0068175Y0046475
X006735Y004775
X0067325Y00512
X0065525Y00523
X00604Y0051675
X00605Y0047075
X00643Y0045425
X0053975Y004525
X0052025Y004665
X00508Y004785
X004965Y0050175
X00534Y0050075
X00521Y0051725
X004685Y005165
X004795Y00453
X0052975Y0041675
X0056225Y0039825
X00573Y003675
X00556Y005745
X0049707Y0057232
X00673Y0057525
X007245Y00575
X00774Y005745
X00849Y0055325
X0084975Y0052325
X0084625Y004665
X0079625Y0045175
X00891Y0040425
X00929Y00394
X009285Y0033525
X0091025Y00342
X0089575Y0031325
X00975Y003
X0102475
X0100025Y0032525
X0105
X0105125Y00373
X0104925Y004065
X010475Y00425
X01024Y00448
X01001Y004235
X0097575Y00448
X01Y004745
X00949Y0047325
X0094775Y0049075
X0092425Y0053775
X0099825Y0052525
X01026Y0054625
X0104925Y00526
X01051Y005745
X0100075Y00574
X0110275
X011255Y00551
X01161Y00543
X011455Y00524
X011015
X011165Y0050175
X0109975Y00477
X011475Y00478
X0120025Y00473
X01224Y0049825
X01188Y005115
X011765Y00447
X0120175Y00423
X01226Y0039825
X01177Y0039575
X01199Y003725
X01153Y0037425
X0114875Y00421
X011Y0037425
X01024Y0039325
X010525Y00475
X0122625Y0045
X01155Y0058275
T04
X0208892Y0008911
Y0011411
X0227189Y0020192
X0229689
X0004789Y0041692
X0002289
X0021683Y0038011
X0021683Y0035511
X0034626Y0035511
Y0038011
X0047569
Y0035511
X0060512
Y0038011
X0073455
Y0035511
X0086398Y0035511
Y0038011
X009934
Y0035511
X0112283Y0035511
Y0038011
X0204689Y0057192
X0207189
X0211111Y0057208
X0213611
T05
X0215005Y0006412
X0217505
X01473Y000624
Y00037
X014476
Y000624
Y000878
Y001132
X01473
Y000878
Y001386
X014476
X01417Y002816
X013294Y00269
X01304
X01269Y002826
X011501Y00288
Y002626
Y002104
X011501Y00185
X011501Y001596
X010739
X010739Y00185
Y002104
Y002626
Y00288
X010991Y001074
Y00082
Y000566
X010229Y000566
Y00082
Y001074
X008874Y001132
Y001386
X00862
Y001132
Y000878
X008874Y000878
Y000624
X00862
Y00037
X008874
X010739Y003134
X011501Y003134
X01269Y00308
Y003334
Y003588
Y003842
Y004096
Y00435
Y004604
Y004858
Y005112
Y005366
Y00562
X01291Y00587
X013164
X013418
X013672
X013926
X01417Y00561
Y005356
Y005102
Y004848
Y004594
Y00434
Y004086
Y003832
Y003578
Y003324
Y00307
X013294Y002944
X01304
T06
X0167493Y0007199
Y0012199
X018175Y0020325
X0185075Y002035
X01351Y00235
X01326Y0021
X01301Y00235
X0126833Y0019108
Y0014028
Y0011488
X0126833Y0008948
X00724Y001001
Y0002375
X0061708Y0002291
X0056628
X0054088
X0051548
X0050908Y00109
X0055908Y00109
X0029199Y0014207
X0024199
X002965Y004238
X003219
X003473
X003727
X003981
X004235
Y005762
X003981
X003727
X003473
X003219
X002965
X0013999Y0058009
X0008999Y0058009
Y0052009
Y0047509
X0013999Y0047509
X0013999Y0052009
X0013999Y0041509
X0008999
X0057999
X0062999
Y0047509
Y0052009
X0057999
X0057999Y0047509
X0057999Y0058009
X0062999Y0058009
X008465Y005762
Y004238
X008719
X008973
X009227
X009481
X009735
Y005762
X009481
X009227
X008973
X008719
X0130408Y0052
X0135408Y0052
X0222925Y0044525
T07
X0129225Y0003899
X0134225
X0139225
X0122508Y0012506
Y0017506
X0122408Y0022606
Y0027606
X0046201Y0002499
X0041201
X0036201
X0031101
X0026101
X0021101
X0016006Y0002508
X0011006
T08
X02109Y00021
Y00191
X0224Y00108
X01719Y00191
Y00021
X0152Y00108
X01077Y004515
Y005265
X0224Y00371
X0229
X02265Y00346
X0224Y00321
X0229
T09
X02155Y00108
X01605
X0140324Y0014975
T10
X023Y00035
X01215
X00035
Y00565
X01215
X023
M30
