%FSLAX43Y43*%
%MOMM*%
G71*
G01*
G75*
%ADD10C,0.300*%
%ADD11R,1.600X1.800*%
%ADD12C,0.125*%
%ADD13R,1.800X1.600*%
%ADD14C,0.400*%
%ADD15C,1.000*%
%ADD16C,0.500*%
%ADD17C,0.600*%
%ADD18C,0.254*%
%ADD19C,1.500*%
%ADD20C,1.700*%
%ADD21R,1.500X1.500*%
%ADD22C,2.000*%
%ADD23R,2.000X2.000*%
%ADD24R,2.500X2.500*%
%ADD25C,2.500*%
%ADD26C,3.000*%
%ADD27R,1.700X1.700*%
%ADD28O,2.000X2.500*%
%ADD29R,2.000X2.500*%
%ADD30R,3.000X3.000*%
%ADD31C,6.000*%
%ADD32C,1.000*%
%ADD33C,1.100*%
%ADD34C,1.200*%
%ADD35C,1.270*%
%ADD36R,2.000X1.600*%
%ADD37R,0.300X1.600*%
%ADD38R,1.450X0.550*%
%ADD39R,0.850X1.300*%
%ADD40R,2.200X2.700*%
%ADD41C,0.075*%
%ADD42R,1.300X0.850*%
%ADD43R,3.000X4.000*%
%ADD44R,0.600X2.200*%
%ADD45R,3.000X1.500*%
%ADD46R,9.300X12.200*%
%ADD47R,2.000X1.500*%
%ADD48R,6.000X2.000*%
%ADD49R,1.803X2.003*%
%ADD50R,2.003X1.803*%
%ADD51C,1.703*%
%ADD52C,1.903*%
%ADD53R,1.703X1.703*%
%ADD54C,2.203*%
%ADD55R,2.203X2.203*%
%ADD56R,2.703X2.703*%
%ADD57C,2.703*%
%ADD58C,3.203*%
%ADD59R,1.903X1.903*%
%ADD60O,2.203X2.703*%
%ADD61R,2.203X2.703*%
%ADD62R,3.203X3.203*%
%ADD63C,6.203*%
%ADD64C,1.203*%
%ADD65C,1.303*%
%ADD66C,1.403*%
%ADD67C,1.473*%
%ADD68R,2.203X1.803*%
%ADD69R,0.503X1.803*%
%ADD70R,1.653X0.753*%
%ADD71R,1.053X1.503*%
%ADD72R,2.403X2.903*%
%ADD73R,1.503X1.053*%
%ADD74R,3.203X4.203*%
%ADD75R,0.803X2.403*%
%ADD76R,3.203X1.703*%
%ADD77R,9.503X12.403*%
%ADD78R,2.203X1.703*%
%ADD79R,6.203X2.203*%
D12*
X55197Y24782D02*
X55464Y25049D01*
X56651Y23863D01*
X56384Y23595D01*
X55197Y24782D01*
X55344D02*
X55464Y24902D01*
X56504Y23863D01*
X56384Y23743D01*
X55344Y24782D01*
X55469Y24759D02*
X56379Y23885D01*
X63117Y21105D02*
X63384Y21372D01*
X64571Y20186D01*
X64303Y19918D01*
X63117Y21105D01*
X63264D02*
X63384Y21225D01*
X64423Y20186D01*
X64303Y20066D01*
X63264Y21105D01*
X63389Y21082D02*
X64299Y20208D01*
X62763Y20751D02*
X63031Y21019D01*
X64217Y19832D01*
X63950Y19565D01*
X62763Y20751D01*
X62910D02*
X63031Y20872D01*
X64070Y19832D01*
X63950Y19712D01*
X62910Y20751D01*
X63035Y20729D02*
X63945Y19855D01*
X62410Y20398D02*
X62677Y20665D01*
X63864Y19479D01*
X63596Y19211D01*
X62410Y20398D01*
X62557D02*
X62677Y20518D01*
X63716Y19479D01*
X63596Y19359D01*
X62557Y20398D01*
X62682Y20375D02*
X63592Y19501D01*
X62056Y20044D02*
X62323Y20312D01*
X63510Y19125D01*
X63243Y18858D01*
X62056Y20044D01*
X62203D02*
X62323Y20164D01*
X63363Y19125D01*
X63243Y19005D01*
X62203Y20044D01*
X62328Y20022D02*
X63238Y19148D01*
X61702Y19691D02*
X61970Y19958D01*
X63157Y18772D01*
X62889Y18504D01*
X61702Y19691D01*
X61850D02*
X61970Y19811D01*
X63009Y18772D01*
X62889Y18651D01*
X61850Y19691D01*
X61974Y19668D02*
X62884Y18794D01*
X61349Y19337D02*
X61616Y19605D01*
X62803Y18418D01*
X62536Y18151D01*
X61349Y19337D01*
X61496D02*
X61616Y19457D01*
X62656Y18418D01*
X62536Y18298D01*
X61496Y19337D01*
X61621Y19315D02*
X62531Y18441D01*
X60995Y18984D02*
X61263Y19251D01*
X62449Y18064D01*
X62182Y17797D01*
X60995Y18984D01*
X61143D02*
X61263Y19104D01*
X62302Y18064D01*
X62182Y17944D01*
X61143Y18984D01*
X61267Y18961D02*
X62177Y18087D01*
X60642Y18630D02*
X60909Y18898D01*
X62096Y17711D01*
X61828Y17443D01*
X60642Y18630D01*
X60789D02*
X60909Y18750D01*
X61949Y17711D01*
X61828Y17591D01*
X60789Y18630D01*
X60914Y18608D02*
X61824Y17733D01*
X60288Y18277D02*
X60556Y18544D01*
X61742Y17357D01*
X61475Y17090D01*
X60288Y18277D01*
X60436D02*
X60556Y18397D01*
X61595Y17357D01*
X61475Y17237D01*
X60436Y18277D01*
X60560Y18254D02*
X61470Y17380D01*
X59935Y17923D02*
X60202Y18190D01*
X61389Y17004D01*
X61121Y16736D01*
X59935Y17923D01*
X60082D02*
X60202Y18043D01*
X61241Y17004D01*
X61121Y16884D01*
X60082Y17923D01*
X60207Y17900D02*
X61117Y17026D01*
X59581Y17569D02*
X59849Y17837D01*
X61035Y16650D01*
X60768Y16383D01*
X59581Y17569D01*
X59728D02*
X59849Y17690D01*
X60888Y16650D01*
X60768Y16530D01*
X59728Y17569D01*
X59853Y17547D02*
X60763Y16673D01*
X59228Y17216D02*
X59495Y17483D01*
X60682Y16297D01*
X60414Y16029D01*
X59228Y17216D01*
X59375D02*
X59495Y17336D01*
X60534Y16297D01*
X60414Y16177D01*
X59375Y17216D01*
X59500Y17193D02*
X60410Y16319D01*
X59495Y25717D02*
X59228Y25984D01*
X60414Y27171D01*
X60682Y26903D01*
X59495Y25717D01*
Y25864D02*
X59375Y25984D01*
X60414Y27023D01*
X60534Y26903D01*
X59495Y25864D01*
X59518Y25989D02*
X60392Y26899D01*
X59849Y25363D02*
X59581Y25631D01*
X60768Y26817D01*
X61035Y26550D01*
X59849Y25363D01*
Y25510D02*
X59728Y25631D01*
X60768Y26670D01*
X60888Y26550D01*
X59849Y25510D01*
X59871Y25635D02*
X60745Y26545D01*
X60202Y25010D02*
X59935Y25277D01*
X61121Y26464D01*
X61389Y26196D01*
X60202Y25010D01*
Y25157D02*
X60082Y25277D01*
X61121Y26316D01*
X61241Y26196D01*
X60202Y25157D01*
X60225Y25282D02*
X61099Y26192D01*
X60556Y24656D02*
X60288Y24923D01*
X61475Y26110D01*
X61742Y25843D01*
X60556Y24656D01*
Y24803D02*
X60436Y24923D01*
X61475Y25963D01*
X61595Y25843D01*
X60556Y24803D01*
X60578Y24928D02*
X61452Y25838D01*
X60909Y24302D02*
X60642Y24570D01*
X61828Y25757D01*
X62096Y25489D01*
X60909Y24302D01*
Y24450D02*
X60789Y24570D01*
X61828Y25609D01*
X61949Y25489D01*
X60909Y24450D01*
X60932Y24574D02*
X61806Y25484D01*
X61263Y23949D02*
X60995Y24216D01*
X62182Y25403D01*
X62449Y25136D01*
X61263Y23949D01*
Y24096D02*
X61143Y24216D01*
X62182Y25256D01*
X62302Y25136D01*
X61263Y24096D01*
X61285Y24221D02*
X62159Y25131D01*
X61616Y23595D02*
X61349Y23863D01*
X62536Y25049D01*
X62803Y24782D01*
X61616Y23595D01*
Y23743D02*
X61496Y23863D01*
X62536Y24902D01*
X62656Y24782D01*
X61616Y23743D01*
X61639Y23867D02*
X62513Y24777D01*
X61970Y23242D02*
X61702Y23509D01*
X62889Y24696D01*
X63157Y24428D01*
X61970Y23242D01*
Y23389D02*
X61850Y23509D01*
X62889Y24549D01*
X63009Y24428D01*
X61970Y23389D01*
X61992Y23514D02*
X62867Y24424D01*
X62323Y22888D02*
X62056Y23156D01*
X63243Y24342D01*
X63510Y24075D01*
X62323Y22888D01*
Y23036D02*
X62203Y23156D01*
X63243Y24195D01*
X63363Y24075D01*
X62323Y23036D01*
X62346Y23160D02*
X63220Y24070D01*
X62677Y22535D02*
X62410Y22802D01*
X63596Y23989D01*
X63864Y23721D01*
X62677Y22535D01*
Y22682D02*
X62557Y22802D01*
X63596Y23841D01*
X63716Y23721D01*
X62677Y22682D01*
X62700Y22807D02*
X63574Y23717D01*
X63031Y22181D02*
X62763Y22449D01*
X63950Y23635D01*
X64217Y23368D01*
X63031Y22181D01*
Y22328D02*
X62910Y22449D01*
X63950Y23488D01*
X64070Y23368D01*
X63031Y22328D01*
X63053Y22453D02*
X63927Y23363D01*
X63384Y21828D02*
X63117Y22095D01*
X64303Y23282D01*
X64571Y23014D01*
X63384Y21828D01*
Y21975D02*
X63264Y22095D01*
X64303Y23134D01*
X64423Y23014D01*
X63384Y21975D01*
X63407Y22100D02*
X64281Y23010D01*
X57318Y26903D02*
X57586Y27171D01*
X58772Y25984D01*
X58505Y25717D01*
X57318Y26903D01*
X57466D02*
X57586Y27023D01*
X58625Y25984D01*
X58505Y25864D01*
X57466Y26903D01*
X57590Y26881D02*
X58500Y26007D01*
X56965Y26550D02*
X57232Y26817D01*
X58419Y25631D01*
X58151Y25363D01*
X56965Y26550D01*
X57112D02*
X57232Y26670D01*
X58272Y25631D01*
X58151Y25510D01*
X57112Y26550D01*
X57237Y26527D02*
X58147Y25653D01*
X56611Y26196D02*
X56879Y26464D01*
X58065Y25277D01*
X57798Y25010D01*
X56611Y26196D01*
X56759D02*
X56879Y26316D01*
X57918Y25277D01*
X57798Y25157D01*
X56759Y26196D01*
X56883Y26174D02*
X57793Y25300D01*
X56258Y25843D02*
X56525Y26110D01*
X57712Y24923D01*
X57444Y24656D01*
X56258Y25843D01*
X56405D02*
X56525Y25963D01*
X57564Y24923D01*
X57444Y24803D01*
X56405Y25843D01*
X56530Y25820D02*
X57440Y24946D01*
X55904Y25489D02*
X56172Y25757D01*
X57358Y24570D01*
X57091Y24302D01*
X55904Y25489D01*
X56051D02*
X56172Y25609D01*
X57211Y24570D01*
X57091Y24450D01*
X56051Y25489D01*
X56176Y25467D02*
X57086Y24592D01*
X55551Y25136D02*
X55818Y25403D01*
X57005Y24216D01*
X56737Y23949D01*
X55551Y25136D01*
X55698D02*
X55818Y25256D01*
X56857Y24216D01*
X56737Y24096D01*
X55698Y25136D01*
X55823Y25113D02*
X56733Y24239D01*
X54843Y24428D02*
X55111Y24696D01*
X56298Y23509D01*
X56030Y23242D01*
X54843Y24428D01*
X54991D02*
X55111Y24549D01*
X56150Y23509D01*
X56030Y23389D01*
X54991Y24428D01*
X55116Y24406D02*
X56026Y23532D01*
X54490Y24075D02*
X54757Y24342D01*
X55944Y23156D01*
X55677Y22888D01*
X54490Y24075D01*
X54637D02*
X54757Y24195D01*
X55797Y23156D01*
X55677Y23036D01*
X54637Y24075D01*
X54762Y24052D02*
X55672Y23178D01*
X54136Y23721D02*
X54404Y23989D01*
X55590Y22802D01*
X55323Y22535D01*
X54136Y23721D01*
X54284D02*
X54404Y23841D01*
X55443Y22802D01*
X55323Y22682D01*
X54284Y23721D01*
X54408Y23699D02*
X55318Y22825D01*
X53783Y23368D02*
X54050Y23635D01*
X55237Y22449D01*
X54969Y22181D01*
X53783Y23368D01*
X53930D02*
X54050Y23488D01*
X55090Y22449D01*
X54969Y22328D01*
X53930Y23368D01*
X54055Y23345D02*
X54965Y22471D01*
X53429Y23014D02*
X53697Y23282D01*
X54883Y22095D01*
X54616Y21828D01*
X53429Y23014D01*
X53577D02*
X53697Y23134D01*
X54736Y22095D01*
X54616Y21975D01*
X53577Y23014D01*
X53701Y22992D02*
X54611Y22118D01*
X53697Y19918D02*
X53429Y20186D01*
X54616Y21372D01*
X54883Y21105D01*
X53697Y19918D01*
Y20066D02*
X53577Y20186D01*
X54616Y21225D01*
X54736Y21105D01*
X53697Y20066D01*
X53719Y20190D02*
X54593Y21100D01*
X54050Y19565D02*
X53783Y19832D01*
X54969Y21019D01*
X55237Y20751D01*
X54050Y19565D01*
Y19712D02*
X53930Y19832D01*
X54969Y20872D01*
X55090Y20751D01*
X54050Y19712D01*
X54073Y19837D02*
X54947Y20747D01*
X54404Y19211D02*
X54136Y19479D01*
X55323Y20665D01*
X55590Y20398D01*
X54404Y19211D01*
Y19359D02*
X54284Y19479D01*
X55323Y20518D01*
X55443Y20398D01*
X54404Y19359D01*
X54426Y19483D02*
X55300Y20393D01*
X54757Y18858D02*
X54490Y19125D01*
X55677Y20312D01*
X55944Y20044D01*
X54757Y18858D01*
Y19005D02*
X54637Y19125D01*
X55677Y20164D01*
X55797Y20044D01*
X54757Y19005D01*
X54780Y19130D02*
X55654Y20040D01*
X55111Y18504D02*
X54843Y18772D01*
X56030Y19958D01*
X56298Y19691D01*
X55111Y18504D01*
Y18651D02*
X54991Y18772D01*
X56030Y19811D01*
X56150Y19691D01*
X55111Y18651D01*
X55133Y18776D02*
X56008Y19686D01*
X55464Y18151D02*
X55197Y18418D01*
X56384Y19605D01*
X56651Y19337D01*
X55464Y18151D01*
Y18298D02*
X55344Y18418D01*
X56384Y19457D01*
X56504Y19337D01*
X55464Y18298D01*
X55487Y18423D02*
X56361Y19333D01*
X55818Y17797D02*
X55551Y18064D01*
X56737Y19251D01*
X57005Y18984D01*
X55818Y17797D01*
Y17944D02*
X55698Y18064D01*
X56737Y19104D01*
X56857Y18984D01*
X55818Y17944D01*
X55841Y18069D02*
X56715Y18979D01*
X56172Y17443D02*
X55904Y17711D01*
X57091Y18898D01*
X57358Y18630D01*
X56172Y17443D01*
Y17591D02*
X56051Y17711D01*
X57091Y18750D01*
X57211Y18630D01*
X56172Y17591D01*
X56194Y17715D02*
X57068Y18625D01*
X56525Y17090D02*
X56258Y17357D01*
X57444Y18544D01*
X57712Y18277D01*
X56525Y17090D01*
Y17237D02*
X56405Y17357D01*
X57444Y18397D01*
X57565Y18277D01*
X56525Y17237D01*
X56548Y17362D02*
X57422Y18272D01*
X56879Y16736D02*
X56611Y17004D01*
X57798Y18190D01*
X58065Y17923D01*
X56879Y16736D01*
Y16884D02*
X56759Y17004D01*
X57798Y18043D01*
X57918Y17923D01*
X56879Y16884D01*
X56901Y17008D02*
X57775Y17918D01*
X57232Y16383D02*
X56965Y16650D01*
X58151Y17837D01*
X58419Y17569D01*
X57232Y16383D01*
Y16530D02*
X57112Y16650D01*
X58151Y17690D01*
X58272Y17569D01*
X57232Y16530D01*
X57255Y16655D02*
X58129Y17565D01*
X57586Y16029D02*
X57318Y16297D01*
X58505Y17483D01*
X58772Y17216D01*
X57586Y16029D01*
Y16177D02*
X57466Y16297D01*
X58505Y17336D01*
X58625Y17216D01*
X57586Y16177D01*
X57608Y16301D02*
X58482Y17211D01*
D14*
X137233Y42657D02*
X138366Y41523D01*
X137374Y40531D01*
X136240Y41665D01*
X137233Y42657D01*
Y42186D02*
X137895Y41523D01*
X137374Y41003D01*
X136712Y41665D01*
X137233Y42186D01*
Y41714D02*
X137423Y41523D01*
X137374Y41474D01*
X137183Y41665D01*
X137233Y41714D01*
X137303Y41612D02*
Y41576D01*
X135253Y40677D02*
X136386Y39543D01*
X135394Y38551D01*
X134261Y39685D01*
X135253Y40677D01*
Y40206D02*
X135915Y39543D01*
X135394Y39023D01*
X134732Y39685D01*
X135253Y40206D01*
Y39734D02*
X135444Y39543D01*
X135394Y39494D01*
X135203Y39685D01*
X135253Y39734D01*
X135323Y39632D02*
Y39596D01*
D49*
X95012Y25493D02*
D03*
X97812Y25493D02*
D03*
X5812Y28693D02*
D03*
X3012Y28693D02*
D03*
X92912Y21393D02*
D03*
X95712Y21393D02*
D03*
X128412Y19493D02*
D03*
X131212Y19493D02*
D03*
X142912Y18893D02*
D03*
X140112Y18893D02*
D03*
X136888Y9407D02*
D03*
X139688Y9407D02*
D03*
X95212Y28393D02*
D03*
X92412Y28393D02*
D03*
X43612Y16993D02*
D03*
X40812Y16993D02*
D03*
X36312Y11893D02*
D03*
X33512Y11893D02*
D03*
X36312Y8993D02*
D03*
X33512Y8993D02*
D03*
X56112Y5493D02*
D03*
X53312Y5493D02*
D03*
X84513Y23182D02*
D03*
X87313Y23182D02*
D03*
X84513Y20382D02*
D03*
X87313D02*
D03*
X95212Y31093D02*
D03*
X92412Y31093D02*
D03*
X84612Y39893D02*
D03*
X81812Y39893D02*
D03*
X5805Y25891D02*
D03*
X3005Y25891D02*
D03*
X142888Y21407D02*
D03*
X140088Y21407D02*
D03*
X140112Y23793D02*
D03*
X142912Y23793D02*
D03*
X139312Y55393D02*
D03*
X136512Y55393D02*
D03*
X141512Y35193D02*
D03*
X138712Y35193D02*
D03*
X136488Y49207D02*
D03*
X133688Y49207D02*
D03*
X73388Y53207D02*
D03*
X76188Y53207D02*
D03*
D50*
X18393Y21088D02*
D03*
Y23888D02*
D03*
X36806Y21012D02*
D03*
X36806Y23812D02*
D03*
X96493Y10887D02*
D03*
Y8087D02*
D03*
X47907Y40512D02*
D03*
X47991Y23895D02*
D03*
X47991Y21095D02*
D03*
X39607Y23812D02*
D03*
X39607Y21012D02*
D03*
X45243Y21013D02*
D03*
Y23813D02*
D03*
X42443Y21013D02*
D03*
Y23813D02*
D03*
X21407Y23912D02*
D03*
X21407Y21112D02*
D03*
X24493Y21088D02*
D03*
X24493Y23888D02*
D03*
X27393Y21088D02*
D03*
X27393Y23888D02*
D03*
X31107Y23812D02*
D03*
X31107Y21012D02*
D03*
X26507Y50312D02*
D03*
X26507Y47512D02*
D03*
X23207Y32412D02*
D03*
X23207Y29612D02*
D03*
X18007Y38112D02*
D03*
X18007Y35312D02*
D03*
X26507Y56712D02*
D03*
X26507Y53912D02*
D03*
X47393Y8488D02*
D03*
Y11288D02*
D03*
X64993Y3188D02*
D03*
Y5988D02*
D03*
X70507Y42012D02*
D03*
X70507Y39212D02*
D03*
X95007Y36712D02*
D03*
X95007Y33912D02*
D03*
X90107Y55012D02*
D03*
X90107Y52212D02*
D03*
X82093Y45188D02*
D03*
X82093Y42388D02*
D03*
X87193Y44788D02*
D03*
Y47588D02*
D03*
X92293Y44788D02*
D03*
Y47588D02*
D03*
X97407Y55312D02*
D03*
X97407Y52512D02*
D03*
X87207Y55012D02*
D03*
X87207Y52212D02*
D03*
X40607Y37112D02*
D03*
X40607Y34312D02*
D03*
X43407Y38412D02*
D03*
X43407Y35612D02*
D03*
X35107Y54312D02*
D03*
X35107Y51512D02*
D03*
X47907Y43312D02*
D03*
X54007Y35112D02*
D03*
X54007Y37912D02*
D03*
X49707Y52712D02*
D03*
X49707Y55512D02*
D03*
X14007Y35312D02*
D03*
X14007Y38112D02*
D03*
X10507Y35312D02*
D03*
X10507Y38112D02*
D03*
X31207Y38612D02*
D03*
X31207Y35812D02*
D03*
X37393Y45388D02*
D03*
X37393Y48188D02*
D03*
X43907Y54412D02*
D03*
X43907Y51612D02*
D03*
X32307Y53112D02*
D03*
X32307Y50312D02*
D03*
X82493Y14088D02*
D03*
X140607Y49812D02*
D03*
X140607Y52612D02*
D03*
X82493Y16888D02*
D03*
X71207Y50437D02*
D03*
X71207Y47637D02*
D03*
D51*
X51548Y2291D02*
D03*
X128900Y35880D02*
D03*
X141260Y58700D02*
D03*
X138720D02*
D03*
X136180D02*
D03*
X133640D02*
D03*
X132408Y52000D02*
D03*
X137408Y52000D02*
D03*
X128809Y12228D02*
D03*
Y9688D02*
D03*
Y7148D02*
D03*
X56628Y2291D02*
D03*
X54088D02*
D03*
X128900Y28260D02*
D03*
Y30800D02*
D03*
Y33340D02*
D03*
Y38420D02*
D03*
Y40960D02*
D03*
Y43500D02*
D03*
Y46040D02*
D03*
Y48580D02*
D03*
Y51120D02*
D03*
Y53660D02*
D03*
X143700Y28160D02*
D03*
Y30700D02*
D03*
Y33240D02*
D03*
Y35780D02*
D03*
Y38320D02*
D03*
Y40860D02*
D03*
Y43400D02*
D03*
Y45940D02*
D03*
Y48480D02*
D03*
Y51020D02*
D03*
Y53560D02*
D03*
X135640Y30440D02*
D03*
Y27900D02*
D03*
X133100Y30440D02*
D03*
D52*
X86200Y8780D02*
D03*
X32190Y42380D02*
D03*
X34730D02*
D03*
X37270D02*
D03*
X39810D02*
D03*
X42350D02*
D03*
X29650Y57620D02*
D03*
X32190D02*
D03*
X34730D02*
D03*
X37270D02*
D03*
X39810D02*
D03*
X42350D02*
D03*
X87190Y42380D02*
D03*
X89730D02*
D03*
X92270D02*
D03*
X94810D02*
D03*
X97350D02*
D03*
X84650Y57620D02*
D03*
X87190D02*
D03*
X89730D02*
D03*
X92270D02*
D03*
X94810D02*
D03*
X97350D02*
D03*
X88740Y3700D02*
D03*
X86200Y6240D02*
D03*
X88740D02*
D03*
Y8780D02*
D03*
X86200Y11320D02*
D03*
X88740D02*
D03*
X86200Y13860D02*
D03*
X88740D02*
D03*
D53*
X128900Y56200D02*
D03*
X131100Y58700D02*
D03*
X128809Y17308D02*
D03*
X61708Y2291D02*
D03*
X143700Y56100D02*
D03*
X133100Y27900D02*
D03*
D54*
X133000Y22800D02*
D03*
X135500Y20300D02*
D03*
X77200Y10110D02*
D03*
X107700Y45150D02*
D03*
Y52650D02*
D03*
X112283Y38011D02*
D03*
X99340D02*
D03*
X86398D02*
D03*
X73455D02*
D03*
X60512D02*
D03*
X47569D02*
D03*
X34626D02*
D03*
X21683D02*
D03*
D55*
X138000Y22800D02*
D03*
X77200Y2475D02*
D03*
X112283Y35511D02*
D03*
X99340Y35511D02*
D03*
X86398Y35511D02*
D03*
X73455Y35511D02*
D03*
X60512Y35511D02*
D03*
X47569D02*
D03*
X34626Y35511D02*
D03*
X21683Y35511D02*
D03*
D56*
X24199Y14207D02*
D03*
D57*
X29199D02*
D03*
D58*
X8999Y41509D02*
D03*
X13999D02*
D03*
X8999Y47509D02*
D03*
X13999Y47509D02*
D03*
X62999Y47509D02*
D03*
X57999D02*
D03*
X62999Y41509D02*
D03*
X57999D02*
D03*
Y52009D02*
D03*
X62999D02*
D03*
X57999Y58009D02*
D03*
X62999D02*
D03*
X8999D02*
D03*
X13999Y52009D02*
D03*
X8999Y52009D02*
D03*
X13999Y58009D02*
D03*
X11006Y2508D02*
D03*
X122408Y17512D02*
D03*
Y27606D02*
D03*
X26101Y2499D02*
D03*
X36201D02*
D03*
X41201D02*
D03*
X131225Y3899D02*
D03*
X136225D02*
D03*
X21101Y2499D02*
D03*
X142250Y14725D02*
D03*
D59*
X84650Y42380D02*
D03*
X29650D02*
D03*
X86200Y3700D02*
D03*
D60*
X2289Y41692D02*
D03*
D61*
X4789D02*
D03*
D62*
X16006Y2508D02*
D03*
X122408Y12512D02*
D03*
Y22606D02*
D03*
X31101Y2499D02*
D03*
X46201D02*
D03*
X141225Y3899D02*
D03*
D63*
X3500Y56500D02*
D03*
X121500D02*
D03*
Y3500D02*
D03*
X3500D02*
D03*
D64*
X140375Y47950D02*
D03*
X134125Y40800D02*
D03*
X142375Y52100D02*
D03*
X136300Y53650D02*
D03*
X133775Y49125D02*
D03*
X135404Y42400D02*
D03*
X141150Y46125D02*
D03*
X137150Y32300D02*
D03*
X132482Y46175D02*
D03*
X136125Y44400D02*
D03*
X142325Y46675D02*
D03*
X139925Y37325D02*
D03*
X135250Y35000D02*
D03*
X134375Y34050D02*
D03*
X133175Y32400D02*
D03*
X140600Y29925D02*
D03*
X132025Y48825D02*
D03*
X132400Y47450D02*
D03*
D65*
X94025Y18200D02*
D03*
X101550Y2400D02*
D03*
X101300Y12525D02*
D03*
X144475Y20200D02*
D03*
X130850Y27525D02*
D03*
X131857Y14434D02*
D03*
X132700Y19400D02*
D03*
X128475Y24475D02*
D03*
X39675Y10100D02*
D03*
X23900Y10275D02*
D03*
X101400Y23225D02*
D03*
X76900Y18025D02*
D03*
X91100Y21525D02*
D03*
X84600Y45225D02*
D03*
X71925Y7400D02*
D03*
X73850Y8000D02*
D03*
X81825Y8725D02*
D03*
X82100Y10450D02*
D03*
X59025Y24725D02*
D03*
X62825Y12525D02*
D03*
X57775Y10000D02*
D03*
X65375Y8300D02*
D03*
D66*
X113400Y4325D02*
D03*
Y14575D02*
D03*
Y24900D02*
D03*
X104925Y40650D02*
D03*
X89100Y40425D02*
D03*
X89675Y27825D02*
D03*
X89725Y26000D02*
D03*
X82450Y23200D02*
D03*
X76600Y27100D02*
D03*
X24250Y4575D02*
D03*
X13400Y24850D02*
D03*
X17200Y44425D02*
D03*
X43325Y9450D02*
D03*
X48375Y13350D02*
D03*
X45075Y9825D02*
D03*
X74875Y23275D02*
D03*
X58275Y27150D02*
D03*
X75125Y26800D02*
D03*
X56625Y27900D02*
D03*
X60525Y27750D02*
D03*
X69550Y24000D02*
D03*
X69025Y25450D02*
D03*
X66425Y21200D02*
D03*
X70200Y14775D02*
D03*
X60325Y5175D02*
D03*
X58750Y13450D02*
D03*
X66775Y15025D02*
D03*
X68075Y13600D02*
D03*
X77325Y13550D02*
D03*
X77100Y28475D02*
D03*
X28250Y27250D02*
D03*
X70900Y12225D02*
D03*
X78250Y12425D02*
D03*
X78175Y29475D02*
D03*
X26850Y28225D02*
D03*
X69100Y11350D02*
D03*
X79400D02*
D03*
X79425Y30275D02*
D03*
X25325Y29100D02*
D03*
X67950Y10100D02*
D03*
X80600Y31425D02*
D03*
X18025Y30450D02*
D03*
X70850Y44675D02*
D03*
X92850Y33525D02*
D03*
X70275Y32600D02*
D03*
X91025Y34200D02*
D03*
X69175Y45375D02*
D03*
X68175Y46475D02*
D03*
X84625Y46650D02*
D03*
X94900Y47325D02*
D03*
X67350Y47750D02*
D03*
X67325Y51200D02*
D03*
X99825Y52525D02*
D03*
X84975Y52325D02*
D03*
X65525Y52300D02*
D03*
X39425Y44275D02*
D03*
X111650Y50175D02*
D03*
X53400Y50075D02*
D03*
X52975Y41675D02*
D03*
X44650Y44150D02*
D03*
X46850Y51650D02*
D03*
X36950Y51325D02*
D03*
X56225Y39825D02*
D03*
X55600Y57450D02*
D03*
X73425Y44075D02*
D03*
X30850Y46250D02*
D03*
X47950Y45300D02*
D03*
X53975Y45250D02*
D03*
X53925Y33100D02*
D03*
X49707Y57232D02*
D03*
X52025Y32375D02*
D03*
X10550Y33325D02*
D03*
X50775Y33275D02*
D03*
X13925Y33375D02*
D03*
X48375Y33500D02*
D03*
X31225Y33900D02*
D03*
X28200Y38575D02*
D03*
X52025Y46650D02*
D03*
X32307Y46807D02*
D03*
X50800Y47850D02*
D03*
X44425Y47825D02*
D03*
X41000Y39175D02*
D03*
X49650Y50175D02*
D03*
X37425Y49875D02*
D03*
X37450Y38075D02*
D03*
X94775Y49075D02*
D03*
X39900Y48000D02*
D03*
X24175D02*
D03*
X92425Y53775D02*
D03*
X37350Y52700D02*
D03*
X24050Y52650D02*
D03*
X24074Y57276D02*
D03*
X96325Y15900D02*
D03*
X84850Y17100D02*
D03*
X68360Y15115D02*
D03*
X90350Y17100D02*
D03*
X16325Y24200D02*
D03*
X9025Y25875D02*
D03*
X50825Y23300D02*
D03*
X43275Y12800D02*
D03*
X61375Y15075D02*
D03*
X30700Y16050D02*
D03*
X27000Y26075D02*
D03*
X42475Y26225D02*
D03*
X70350Y34150D02*
D03*
X69225Y37200D02*
D03*
X68950Y34300D02*
D03*
X56425Y33100D02*
D03*
X60550D02*
D03*
X64300Y33125D02*
D03*
X82325Y28875D02*
D03*
X89350Y31600D02*
D03*
X92525Y24975D02*
D03*
X98625Y32500D02*
D03*
X98500Y15975D02*
D03*
X94550Y13900D02*
D03*
X91900Y11125D02*
D03*
X91875Y7100D02*
D03*
X83925Y10600D02*
D03*
X90225Y19800D02*
D03*
X82500Y19700D02*
D03*
X70675D02*
D03*
X67400Y17925D02*
D03*
X65700Y22650D02*
D03*
X67025Y8100D02*
D03*
X69350Y8500D02*
D03*
X50100Y20750D02*
D03*
X47400Y17800D02*
D03*
X52375Y23100D02*
D03*
X40950Y19000D02*
D03*
X44100Y19125D02*
D03*
X38175Y16200D02*
D03*
X33700Y19950D02*
D03*
X33500Y23425D02*
D03*
X29100Y18950D02*
D03*
X28900Y8650D02*
D03*
X31300Y11925D02*
D03*
X38575Y12300D02*
D03*
X38700Y8475D02*
D03*
X5150Y50000D02*
D03*
X2600Y47450D02*
D03*
X5025Y45000D02*
D03*
X2400Y37550D02*
D03*
Y32275D02*
D03*
X7350Y38900D02*
D03*
X7725Y33600D02*
D03*
X11600Y29625D02*
D03*
X16000Y28050D02*
D03*
X21075Y27800D02*
D03*
X28700Y34025D02*
D03*
X28800Y36925D02*
D03*
X23900Y46125D02*
D03*
X29300Y55050D02*
D03*
X45200Y58150D02*
D03*
X52100Y51725D02*
D03*
X67500Y57500D02*
D03*
X72500D02*
D03*
X77500Y57500D02*
D03*
X84900Y55325D02*
D03*
X60400Y51675D02*
D03*
X60500Y47075D02*
D03*
X11450Y55000D02*
D03*
X16475Y41700D02*
D03*
X15625Y50000D02*
D03*
X15425Y54800D02*
D03*
X5000Y19925D02*
D03*
X9950Y19900D02*
D03*
X7500Y17475D02*
D03*
X5150Y15000D02*
D03*
X10000Y15025D02*
D03*
X7550Y12500D02*
D03*
X2750Y17400D02*
D03*
X2700Y12375D02*
D03*
X5100Y10000D02*
D03*
X9950Y9600D02*
D03*
X12775Y12500D02*
D03*
X7675Y22500D02*
D03*
X2300Y22450D02*
D03*
X8125Y6900D02*
D03*
X12100Y7025D02*
D03*
X21150Y12300D02*
D03*
X20700Y16150D02*
D03*
X25350Y18500D02*
D03*
X25900Y10550D02*
D03*
X33550Y44000D02*
D03*
X122400Y49825D02*
D03*
X118800Y51150D02*
D03*
X115500Y58275D02*
D03*
X112550Y55100D02*
D03*
X114550Y52400D02*
D03*
X114750Y47800D02*
D03*
X114875Y42100D02*
D03*
X115300Y37425D02*
D03*
X117700Y39575D02*
D03*
X117650Y44700D02*
D03*
X120025Y47300D02*
D03*
X120175Y42300D02*
D03*
X119900Y37250D02*
D03*
X122600Y39825D02*
D03*
X122625Y45000D02*
D03*
X105125Y37300D02*
D03*
X110000Y37425D02*
D03*
X102400Y39325D02*
D03*
X92900Y39400D02*
D03*
X82650Y37400D02*
D03*
X109975Y47700D02*
D03*
X105250Y47500D02*
D03*
X100000Y47450D02*
D03*
X97575Y44800D02*
D03*
X102400D02*
D03*
X100100Y42350D02*
D03*
X104750Y42500D02*
D03*
X110150Y52400D02*
D03*
X104925Y52600D02*
D03*
X102600Y54625D02*
D03*
X100075Y57400D02*
D03*
X105100Y57450D02*
D03*
X110275Y57400D02*
D03*
X137149Y13825D02*
D03*
X133149Y13525D02*
D03*
X63325Y37200D02*
D03*
X57300Y36750D02*
D03*
X82525Y57500D02*
D03*
X21350Y40600D02*
D03*
X116100Y54300D02*
D03*
X78175Y42200D02*
D03*
Y37400D02*
D03*
X75025Y2900D02*
D03*
X71450D02*
D03*
X67500Y2900D02*
D03*
X54361Y15900D02*
D03*
D67*
X126000Y11800D02*
D03*
Y13175D02*
D03*
Y41750D02*
D03*
Y43200D02*
D03*
D68*
X101325Y4260D02*
D03*
Y6800D02*
D03*
Y9340D02*
D03*
X110725D02*
D03*
Y6800D02*
D03*
Y4260D02*
D03*
Y14560D02*
D03*
Y17100D02*
D03*
Y19640D02*
D03*
X101325D02*
D03*
Y17100D02*
D03*
Y14560D02*
D03*
Y24860D02*
D03*
Y27400D02*
D03*
Y29940D02*
D03*
X110725D02*
D03*
Y27400D02*
D03*
Y24860D02*
D03*
D69*
X131207Y17357D02*
D03*
X137057Y17357D02*
D03*
X131857Y11857D02*
D03*
X133157Y11857D02*
D03*
X137057Y11857D02*
D03*
X136407Y11857D02*
D03*
X135757D02*
D03*
X135107D02*
D03*
X134457D02*
D03*
X133807D02*
D03*
X131207D02*
D03*
X136407Y17357D02*
D03*
X135757Y17357D02*
D03*
X135107Y17357D02*
D03*
X134457D02*
D03*
X133807D02*
D03*
X133157D02*
D03*
X132507D02*
D03*
X131857D02*
D03*
X132507Y11857D02*
D03*
D70*
X128525Y23450D02*
D03*
Y21550D02*
D03*
X130675D02*
D03*
Y22500D02*
D03*
Y23450D02*
D03*
D71*
X74802Y48302D02*
D03*
X73852Y50502D02*
D03*
X75752D02*
D03*
X33748Y14698D02*
D03*
X35648Y14698D02*
D03*
X34698Y16898D02*
D03*
D72*
X20400Y9700D02*
D03*
X16000D02*
D03*
X97000Y3800D02*
D03*
X92600D02*
D03*
D73*
X144202Y9048D02*
D03*
X144202Y10948D02*
D03*
X142002Y9998D02*
D03*
X21806Y52602D02*
D03*
X19606Y51652D02*
D03*
Y53552D02*
D03*
X21848Y57276D02*
D03*
X19648Y56326D02*
D03*
Y58226D02*
D03*
X21798Y48002D02*
D03*
X19598Y47052D02*
D03*
Y48952D02*
D03*
X21798Y43302D02*
D03*
X19598Y42352D02*
D03*
Y44252D02*
D03*
D74*
X107700Y56900D02*
D03*
Y40900D02*
D03*
D75*
X87930Y26750D02*
D03*
X86660D02*
D03*
X85390Y26750D02*
D03*
X84120Y26750D02*
D03*
X87930Y32000D02*
D03*
X86660Y32000D02*
D03*
X85390D02*
D03*
X84120Y32000D02*
D03*
D76*
X17253Y13978D02*
D03*
X17253Y19058D02*
D03*
D77*
X6753Y16518D02*
D03*
D78*
X79700Y44750D02*
D03*
X76500D02*
D03*
Y39250D02*
D03*
X79700D02*
D03*
D79*
X63400Y10600D02*
D03*
X53000D02*
D03*
M02*
