METRIC,LZ
M48
T1F00S00C0.500
T2F00S00C0.600
T3F00S00C0.700
T4F00S00C0.900
T5F00S00C1.000
T6F00S00C1.200
T7F00S00C1.300
T8F00S00C2.000
T9F00S00C3.000
T10F00S00C3.500
%
T01
X0133175Y00324
X0134375Y003405
X013525Y0035
X013715Y00323
X01406Y0029925
X0139925Y0037325
X0134125Y00408
X0135404Y00424
X0136125Y00444
X0132482Y0046175
X01324Y004745
X0132025Y0048825
X0133775Y0049125
X01363Y005365
X0142375Y00521
X0142325Y0046675
X014115Y0046125
X0140375Y004795
T02
X0131857Y0014434
X01327Y00194
X0128475Y0024475
X013085Y0027525
X0144475Y00202
X01014Y0023225
X01013Y0012525
X010155Y00024
X0094025Y00182
X00911Y0021525
X00769Y0018025
X00821Y001045
X0081825Y0008725
X007385Y0008
X0071925Y00074
X0065375Y00083
X0062825Y0012525
X0057775Y001
X0059025Y0024725
X0039675Y00101
X00239Y0010275
X00846Y0045225
T03
X0126Y00118
Y0013175
X0133149Y0013525
X0137149Y0013825
X01134Y0014575
Y0004325
Y00249
X0092525Y0024975
X0089725Y0026
X0089675Y0027825
X0090225Y00198
X009035Y00171
X0096325Y00159
X00985Y0015975
X009455Y00139
X00919Y0011125
X0091875Y00071
X0083925Y00106
X00794Y001135
X007825Y0012425
X0077325Y001355
X00709Y0012225
X00691Y001135
X006795Y00101
X0067025Y00081
X006935Y00085
X0068075Y00136
X006836Y0015115
X0066775Y0015025
X00674Y0017925
X0066425Y00212
X00657Y002265
X006955Y0024
X0069025Y002545
X0070675Y00197
X00702Y0014775
X0061375Y0015075
X005875Y001345
X0054361Y00159
X0048375Y001335
X00474Y00178
X00501Y002075
X0050825Y00233
X0052375Y00231
X0056625Y00279
X0058275Y002715
X0060525Y002775
X0075125Y00268
X00766Y00271
X00771Y0028475
X0082325Y0028875
X008245Y00232
X00825Y00197
X008485Y00171
X0074875Y0023275
X0075025Y00029
X007145
X00675Y00029
X0060325Y0005175
X0045075Y0009825
X0043325Y000945
X0043275Y00128
X0038575Y00123
X00387Y0008475
X0038175Y00162
X004095Y0019
X00441Y0019125
X0042475Y0026225
X00335Y0023425
X00337Y001995
X00291Y001895
X002535Y00185
X00207Y001615
X002115Y00123
X00259Y001055
X00289Y000865
X00313Y0011925
X00307Y001605
X002825Y002725
X002685Y0028225
X0027Y0026075
X0025325Y00291
X0021075Y00278
X0016Y002805
X0016325Y00242
X00134Y002485
X0009025Y0025875
X0007675Y00225
X000995Y00199
X00075Y0017475
X001Y0015025
X000755Y00125
X0012775
X000995Y00096
X0008125Y00069
X00121Y0007025
X002425Y0004575
X00051Y001
X00027Y0012375
X000275Y00174
X0005Y0019925
X000515Y0015
X00023Y002245
X00024Y0032275
Y003755
X0005025Y0045
X00026Y004745
X000515Y005
X0015625
X0015425Y00548
X001145Y0055
X0024074Y0057276
X002405Y005265
X0024175Y0048
X00239Y0046125
X003085Y004625
X0032307Y0046807
X003355Y0044
X0039425Y0044275
X00399Y0048
X0037425Y0049875
X003695Y0051325
X003735Y00527
X00293Y005505
X00282Y0038575
X00288Y0036925
X00287Y0034025
X0031225Y00339
X003745Y0038075
X0041Y0039175
X004465Y004415
X0044425Y0047825
X00452Y005815
X002135Y00406
X0016475Y00417
X00172Y0044425
X0013925Y0033375
X001055Y0033325
X0007725Y00336
X000735Y00389
X00116Y0029625
X0018025Y003045
X0048375Y00335
X0050775Y0033275
X0052025Y0032375
X0053925Y00331
X0056425Y00331
X006055
X00643Y0033125
X0063325Y00372
X0069225
X006895Y00343
X007035Y003415
X0070275Y00326
X0078175Y0029475
X0079425Y0030275
X00806Y0031425
X008265Y00374
X0078175Y00374
Y00422
X0073425Y0044075
X007085Y0044675
X0069175Y0045375
X0068175Y0046475
X006735Y004775
X0067325Y00512
X0065525Y00523
X00604Y0051675
X00605Y0047075
X0053975Y004525
X0052025Y004665
X00508Y004785
X004965Y0050175
X00534Y0050075
X00521Y0051725
X004685Y005165
X004795Y00453
X0052975Y0041675
X0056225Y0039825
X00573Y003675
X00556Y005745
X0049707Y0057232
X00675Y00575
X00725
X00775Y00575
X0082525Y00575
X00849Y0055325
X0084975Y0052325
X0084625Y004665
X00891Y0040425
X00929Y00394
X009285Y0033525
X0091025Y00342
X008935Y00316
X0098625Y00325
X01024Y0039325
X0104925Y004065
X010475Y00425
X01024Y00448
X01001Y004235
X0097575Y00448
X01Y004745
X00949Y0047325
X0094775Y0049075
X0092425Y0053775
X0099825Y0052525
X01026Y0054625
X0104925Y00526
X01051Y005745
X0100075Y00574
X0110275
X011255Y00551
X01161Y00543
X011455Y00524
X011015
X011165Y0050175
X0109975Y00477
X011475Y00478
X0120025Y00473
X01224Y0049825
X01188Y005115
X011765Y00447
X0120175Y00423
X01226Y0039825
X01177Y0039575
X01199Y003725
X01153Y0037425
X0114875Y00421
X011Y0037425
X0105125Y00373
X010525Y00475
X0122625Y0045
X01155Y0058275
X0126Y00432
Y004175
T04
X0002289Y0041692
X0004789
T05
X0128809Y0007148
Y0009688
Y0012228
Y0017308
X01355Y00203
X0138Y00228
X0133
X01331Y00279
X013564
X01289Y002826
X01437Y002816
X008874Y001386
X00862
Y001132
X008874
Y000878
Y000624
X00862
Y00037
X008874
X00862Y000878
X00772Y001011
Y0002475
X0061708Y0002291
X0056628
X0054088
X0051548
X0029199Y0014207
X0024199
X0021683Y0035511
X0021683Y0038011
X002965Y004238
X003219
X003473
X003727
X003981
X004235
X0034626Y0038011
Y0035511
X003473Y005762
X003727
X003981
X004235
X003219
X002965
X0047569Y0038011
Y0035511
X0060512
Y0038011
X0073455
Y0035511
X008465Y004238
Y005762
X008719
X008973
X009227
X009481
X009735
Y004238
X009481
X009227
X008973
X008719
X0086398Y0038011
Y0035511
X009934Y0035511
Y0038011
X0112283
X0112283Y0035511
X01289Y003588
X01289Y003334
Y00308
X01331Y003044
X013564
X01437Y00307
Y003324
Y003578
Y003832
Y004086
Y00434
Y004594
Y004848
Y005102
Y005356
Y00561
X014126Y00587
X013872
X013618
X013364
X01311
X01289Y00562
X01289Y005366
Y005112
Y004858
Y004604
Y00435
Y004096
Y003842
X0132408Y0052
X0137408Y0052
T06
X0008999Y0041509
X0013999
Y0047509
X0013999Y0052009
X0008999Y0052009
Y0047509
X0008999Y0058009
X0013999
X0057999
X0062999
X0062999Y0052009
Y0047509
X0057999
X0057999Y0052009
Y0041509
X0062999
T07
X0131225Y0003899
X0136225
X0141225
X0122408Y0012512
Y0017512
Y0022606
Y0027606
X0046201Y0002499
X0041201
X0036201
X0031101
X0026101
X0021101
X0016006Y0002508
X0011006
T08
X01077Y004515
Y005265
T09
X014225Y0014725
T10
X01215Y00035
X00035
Y00565
X01215
M30
